<?xml version="1.0" encoding="UTF-8" standalone="no"?><!DOCTYPE svg PUBLIC "-//W3C//DTD SVG 1.1//EN" "http://www.w3.org/Graphics/SVG/1.1/DTD/svg11.dtd"><svg width="100%" height="100%" viewBox="0 0 5225 5225" version="1.1" xmlns="http://www.w3.org/2000/svg" xmlns:xlink="http://www.w3.org/1999/xlink" xml:space="preserve" xmlns:serif="http://www.serif.com/" style="fill-rule:evenodd;clip-rule:evenodd;stroke-linejoin:round;stroke-miterlimit:2;"><g><path d="M1623.321,2803.231c-5.241,-3 -4.902,-3.17 -10.311,-5.902c-26.25,-13.259 -75.502,-42.036 -78.425,-43.51c-14.732,-7.43 -196.155,-108.944 -208.14,-115.002c-64.928,-32.821 -103.335,-70.451 -149.932,-55.482c-34.119,10.961 -27.993,37.502 -28.083,117.212c-0.119,105.231 -1.47,1302.246 -0.252,1315.39c0.234,2.529 2.725,29.403 -0.242,31.744c-1.359,1.072 -3.423,-0.641 -5.154,-0.64c-1.99,0.002 -4.173,1.577 -5.933,0.65c-1.378,-0.726 -5.088,-14.103 -17.941,-32.985c-9.798,-14.394 -18.469,-32.048 -25.775,-43.553c-14.7,-23.148 -125.213,-209.088 -134.381,-224.347c-126.05,-209.789 -124.444,-210.64 -135.68,-228.704c-10.046,-16.15 -43.863,-75.915 -48.872,-83.828c-22.675,-35.823 -166.818,-285.892 -186.215,-316.997c-11.359,-18.215 -217.042,-380.105 -222.111,-389.571c-63.332,-118.269 -122.339,-204.875 -146.865,-288.344c-50.477,-171.785 -27.582,-299.811 -24.471,-322.362c14.954,-108.398 52.447,-194.302 69.913,-225.95c81.481,-147.645 165.779,-193.981 286.695,-252.464c34.2,-16.542 339.869,-172.77 340.282,-172.957c30.275,-13.758 29.268,-15.391 58.959,-30.349c100.957,-50.861 181.557,-88.705 202.167,-101.339c10.849,-6.65 245.905,-190.721 254.725,-198.156c4.053,-3.417 392.431,-304.756 426.567,-331.242c19.268,-14.95 236.271,-183.321 241.048,-186.615c19.903,-13.726 34.274,-28.143 43.742,-34.623c22.002,-15.059 374.935,-290.055 408.148,-315.414c125.035,-95.469 152.94,-120.348 220.496,-170.559c36.13,-26.853 77.909,-44.151 85.099,-47.128c108.291,-44.836 194.7,7.189 201.406,10.197c119.313,53.52 236.317,256.678 240.58,263.637c105.358,171.981 119.036,257.364 115.477,259.038c-4.355,2.047 -9.989,0.419 -14.344,-1.629c-0.547,-0.257 -20.883,-52.85 -22.665,-57.459c-16.612,-42.963 -49.166,-99.87 -53.972,-108.271c-65.608,-114.689 -110.196,-174.183 -170.971,-231.29c-11.226,-10.549 -87.943,-82.636 -172.813,-84.94c-85.21,-2.314 -122.036,36.299 -123.588,37.547c-23.353,18.783 -49.799,42.371 -83.972,107.501c-12.154,23.163 -35.343,85.104 -42.981,113.138c-83.839,307.72 -33.114,653.104 -20.36,766.119c19.808,175.513 35.278,232.943 43.618,278.832c16.581,91.229 26.793,129.008 43.9,209.049c7.735,36.19 23.939,90.012 25.464,96.036c21.023,83.018 21.27,82.85 47.319,164.424c36.268,113.581 36.901,113.206 40.014,123.081c17.859,56.644 30.334,82.415 41.339,114.059c16.808,48.334 18.66,47.44 37.319,95.009c23.996,61.174 76.65,176.394 98.214,216.572c41.236,76.829 49.548,94.775 96.156,165.227c4.921,7.439 39.746,60.08 65.73,90.059c14.282,16.478 147.293,192.569 296.599,133.98c8.736,-3.428 39.774,-24.371 42.436,-26.553c12.009,-9.843 13.484,-19.4 24.027,-8.089c4.336,4.652 2.059,5.39 1.584,20.965c-0.476,15.612 4.158,29.72 -12.626,53.248c-40.164,56.303 -39.104,56.912 -42.684,61.732c-15.649,21.072 -30.389,45.064 -35.218,51.835c-22.663,31.776 -286.337,420.357 -293.609,431.567c-20.425,31.486 -22.833,29.681 -42.759,61.591c-12.859,20.591 -14.349,19.423 -27.607,39.645c-47.53,72.498 -48.488,71.813 -52.59,78.133c-24.255,37.369 -65.708,96.672 -74.367,110.152c-13.571,21.127 -108.988,159.022 -112.928,165.75c-8.022,13.698 -8.419,13.333 -31.064,46.098c-39.275,56.829 -39.594,56.515 -42.86,61.548c-3.892,5.999 -24.139,37.204 -49.639,74.331c-21.831,31.785 -21.509,33.441 -31.075,47.283c-2.438,3.527 -2.37,5.963 -9.291,3.43c-10.78,-3.946 -3.97,-8.34 -3.84,-49.294c1.788,-432.696 3.576,-865.393 5.364,-1298.089c0.099,-122.277 5.77,-136.612 -20.362,-146.908c-24.202,-9.535 -44.401,0.415 -76.441,18.714c-39.083,22.321 -39.991,20.322 -78.605,43.255c-26.993,16.032 -27.836,14.25 -55.311,29.395c-159.172,87.742 -247.455,133.818 -311.111,170.119c-26.418,15.066 -26.784,14.221 -34.34,18.447c-48.709,27.242 -60.049,32.306 -72.034,39.171c-32.871,18.827 -91.881,50.258 -102.295,56.367c-41.528,24.361 -44.549,9.736 -87.243,-12.746c-57.966,-30.523 -56.883,-32.19 -88.932,-48.762c-26.054,-13.472 -177.866,-97.206 -181.108,-99.223Z" style="fill:#dda022;"/><path d="M2100.529,3309.172c133.859,-89.807 286.975,-194.408 295.924,-201.106c1.527,-1.143 17.181,-12.859 23.459,-4.295c3.591,4.899 1.958,5.603 1.634,75.91c-1.669,362.874 0.691,908.694 -2.353,949.932c-0.979,13.264 2.077,40.976 -12.107,45.286c-8.345,2.536 -201.017,0.886 -924.169,1.292c-25.741,0.014 -35.631,5.004 -37.071,-20.634c-0.446,-7.936 -0.109,-1040.602 0.118,-1045.844c0.063,-1.469 0.692,-16.014 10.757,-14.896c13.071,1.452 212.419,133.403 234.602,146.882c45.373,27.569 44.533,28.674 89.029,57.833c128.528,84.226 128.588,83.916 137.254,90.42c35.921,26.963 40.887,13.681 78.408,-11.129c8.381,-5.542 94.803,-62.687 104.515,-69.652Z" style="fill:#dda123;"/><path d="M2795.409,722.911c2.929,-158.896 30.69,-331.375 86.592,-420.328c15.858,-25.233 77.468,-126.972 198.76,-1.342c60.579,62.745 93.851,121.928 128.817,185.464c132.059,239.958 204.429,518.406 226.364,601.728c52.015,197.587 52.045,210.642 75.298,314.377c34.26,152.839 39.196,206.326 45.174,243.577c28.508,177.628 37.137,372.705 37.606,392.011c7.076,291.599 -21.754,425.224 -45.315,505.701c-20.56,70.227 -57.938,105.863 -88.095,113.463c-103.265,26.024 -219.346,-184.67 -242.363,-219.456c-13.82,-20.885 -30.213,-54.163 -34.167,-61.141c-16.872,-29.778 -37.165,-75.185 -43.752,-87.058c-13.334,-24.037 -32.363,-73.944 -43.381,-95.738c-4.757,-9.409 -47.034,-112.104 -61.428,-156.423c-12.738,-39.221 -17.89,-39.51 -12.032,-52.58c3.763,-8.394 40.331,-11.395 80.73,-32.086c144.765,-74.143 195.843,-177.435 219.243,-236.08c76.108,-190.742 25.491,-390.222 -94.624,-509.824c-29.251,-29.126 -42.05,-39.171 -75.773,-62.579c-45.071,-31.285 -121.142,-56.157 -146.365,-60.446c-88.149,-14.989 -151.85,-1.117 -173.804,2.484c-23.725,3.892 -21.437,-8.126 -27.359,-67.339c-11.001,-110.013 -10.236,-272.658 -10.125,-296.382Z" style="fill:#dda123;"/><path d="M5031.625,1280.309c17.398,220.187 -3.318,364.665 -14.31,470.36c-1.319,12.679 -26.336,179.013 -65.261,305.759c-5.735,18.675 -21.47,78.52 -53.927,156.333c-63.457,152.133 -104.561,193.899 -165.767,199.789c-81.181,7.813 -148.34,-79.459 -127.238,-164.138c9.198,-36.911 45.812,-109.346 76.995,-244.319c4.697,-20.33 14.692,-48.026 32.714,-148.631c35.58,-198.621 38.809,-336.122 31.359,-505.092c-2.491,-56.494 -21.605,-220.54 -45.497,-323.224c-7.418,-31.882 -27.472,-130.332 -76.267,-268.122c-17.835,-50.362 -69.848,-173.238 -95.256,-217.505c-14.632,-25.492 -49.893,-101.396 -130.153,-217.75c-68.656,-99.531 -73.077,-96.126 -89.465,-117.97c-4.827,-6.434 -46.649,-53.629 -22.003,-127.731c24.459,-73.543 123.158,-113.203 219.767,-36.542c102.217,81.111 133.572,133.266 183.967,200.504c4.53,6.044 4.009,6.336 51.749,78.963c4.224,6.426 30.149,51.913 35.561,60.706c1.372,2.228 54.81,98.715 87.935,183.115c8.448,21.525 140.229,322.021 165.096,715.494Z" style="fill:#189c83;"/><path d="M2518.021,4398.26c-44.79,67.339 -73.604,105.506 -101.577,150.11c-4.831,7.703 -5.193,7.379 -64.277,93.733c-47.801,69.863 -90.474,134.548 -98.237,146.317c-2.135,3.236 -2.859,2.627 -28.258,39.364c-46.546,67.326 -45.467,67.964 -49.609,74.299c-2.967,4.537 -3.657,3.866 -38.626,55.672c-16.787,24.87 -17.21,24.44 -35.359,51.914c-0.062,0.093 -54.593,77.792 -77.706,113.674c-17.373,26.972 -39.271,56.783 -42.826,61.621c-19.314,26.293 -24.542,41.442 -36.322,39.932c-6.599,-0.846 -5.216,-3.346 -32.642,-43.361c-9.398,-13.711 -108.329,-158.053 -117.613,-171.292c-46.543,-66.371 -43.933,-67.968 -91.369,-133.851c-8.92,-12.389 -23.026,-35.967 -57.051,-83.714c-15.807,-22.182 -104.064,-152.451 -113.067,-165.74c-57.244,-84.764 -114.489,-169.529 -171.733,-254.293c-5.1,-7.554 -51.511,-76.297 -64.376,-94.002c-1.13,-1.555 -14.998,-20.639 10.923,-21.406c13.439,-0.398 1018.19,0.27 1106.729,0.328c13.966,0.009 173.781,0.115 174.579,0.156c19.614,1.002 17.236,10.74 5.538,26.609c-16.308,22.123 -16.986,28.269 -42.21,61.714c-11.244,14.908 -19.407,31.15 -34.909,52.214Z" style="fill:#199c84;"/><path d="M3794.408,566.053c0.123,-1.473 -0.741,-15.795 5.662,-34.832c7.658,-22.768 30.332,-79.568 96.231,-84.284c61.043,-4.368 101.474,33.033 112.568,41.363c100.031,75.105 178.464,196.065 199.32,226.888c22.874,33.806 46.706,80.573 51.083,87.712c20.998,34.254 54.155,110.924 57.584,119.35c37.273,91.569 47.713,134.479 51.841,148.523c21.768,74.057 23.639,73.56 37.528,149.503c46.08,251.952 22.573,410.628 20.242,434.733c-15.758,162.939 -64.309,335.476 -113.449,426.357c-62.414,115.431 -152.042,85.417 -184.162,55.563c-63.054,-58.606 -29.081,-135.686 -23.992,-150.856c21.529,-64.175 19.417,-64.686 36.735,-130.183c52.698,-199.303 36.606,-457.318 6.253,-575.167c-9.759,-37.89 -45.606,-225.183 -159.206,-416.514c-125.957,-212.144 -187.248,-209.503 -194.238,-298.156Z" style="fill:#189d83;"/><path d="M2899.941,1594.827c-33.381,-151.268 -41.605,-187.729 -48.254,-227.371c-18.775,-111.946 -19.351,-111.775 -20.577,-121.562c-4.582,-36.564 -16.265,-50.734 20.147,-57.318c76.573,-13.845 105.423,-8.24 121.644,-6.855c117.565,10.032 274.964,122.136 291.916,325.523c5.98,71.753 -23.713,164.04 -42.682,198.421c-43.181,78.264 -95.556,135.378 -206.92,173.151c-30.473,10.336 -34.497,3.28 -42.621,-23.326c-4.05,-13.263 -34.419,-112.716 -48.267,-166.489c-12.141,-47.145 -11.907,-47.059 -24.385,-94.174Z" style="fill:#dca023;"/><path d="M3716.202,1454.172c-18.519,-107.185 -42.118,-163.097 -52.394,-192.184c-40.171,-113.703 -61.452,-140.145 -76.721,-171.327c-30.724,-62.744 19.571,-132.738 82.643,-128.02c64.715,4.842 93.41,64.398 128.356,118.845c5.066,7.893 41.751,79.332 53.56,112.242c10.863,30.273 29.25,80.457 33.33,96.176c21.568,83.094 42.851,184.053 40.167,304.314c-1.465,65.658 -21.419,171.216 -35.968,218.288c-29.942,96.879 -157.272,94.48 -167.296,-9.293c-3.81,-39.437 32.487,-141.608 -5.677,-349.041Z" style="fill:#189c82;"/></g></svg>